<?xml version="1.0" encoding="UTF-8"?>
<svg width="100pt" height="100pt" version="1.1" viewBox="0 0 100 100" xmlns="http://www.w3.org/2000/svg">
 <g>
  <path d="m58.977 38.902 11.891-11.895c-4.9531-4.75-10.789-8.4805-17.184-10.977l1.3086 20.906c1.457 0.35547 2.8164 1.0273 3.9844 1.9648z"/>
  <path d="m49.336 37.488c0.95703-0.47266 2-0.74219 3.0625-0.78906l-1.4648-21.609c-3.1875-1.0039-6.5078-1.5352-9.8516-1.5742-2.8828-0.054687-5.75 0.46094-8.4336 1.5195 0.13672 0.74219 0.46094 1.4375 0.94141 2.0195z"/>
  <path d="m45.719 40.969c0.36328-0.72656 0.83984-1.3906 1.4141-1.9648 0.10156-0.10156 0.20703-0.19922 0.31641-0.28516l-15.613-20.488c-0.54297-0.73438-1.2617-1.3242-2.0938-1.7031-0.89844 0.58594-1.7344 1.2617-2.4922 2.0195-3.2344 3.457-5.0273 8.0195-5 12.758 0.33984 0.28906 0.73047 0.51953 1.1523 0.67969z"/>
  <path d="m44.855 45.688c-0.078125-0.8125-0.054688-1.6328 0.078125-2.4375l-21.77-8.7773c-0.26953-0.14062-0.5625-0.23828-0.86328-0.28906 0.054688 0.97656 0.16016 1.9453 0.3125 2.9102 0.92578 5.6562 2.9844 11.062 6.0547 15.902l16.527-5.6328c-0.17578-0.54297-0.29297-1.1055-0.33984-1.6758z"/>
  <path d="m47.895 51.867c-0.58984-0.57813-1.0977-1.2266-1.5195-1.9375l-16.137 5.5c1.9375 2.7852 4.1172 5.3906 6.5234 7.7812 2.4453 2.4492 5.1211 4.6602 7.9883 6.6016l5.5-16.164h0.003906c-0.86328-0.48438-1.6562-1.082-2.3594-1.7812z"/>
  <path d="m56.75 54.777c-0.57031 0.10156-1.1484 0.15625-1.7305 0.15625-0.74219 0.003906-1.4805-0.085938-2.1992-0.26172l-5.6875 16.688h0.003907c5.6484 3.5742 12.07 5.7461 18.727 6.3398-0.039062-0.29688-0.11719-0.58984-0.23438-0.86719z"/>
  <path d="m61.07 52.289c-0.10547 0.10547-0.21094 0.23438-0.3125 0.33984-0.53516 0.54297-1.1562 0.99219-1.8359 1.3359l9.0898 22.504v-0.003906c0.17969 0.44922 0.42578 0.86328 0.73438 1.2344 4.7344 0.070312 9.3047-1.7148 12.73-4.9805 0.74219-0.73438 1.4023-1.5547 1.9648-2.4336-0.38281-0.83203-0.95703-1.5586-1.6758-2.1211z"/>
  <path d="m84.883 48.828h-0.027343l-21.82-1.2578c-0.070312 1.0117-0.33984 2-0.78516 2.9102l20.59 15.797c0.625 0.53906 1.4062 0.85938 2.2266 0.91406 2.043-5.1602 1.9141-11.629-0.18359-18.363z"/>
  <path d="m62.828 44.875 21.191 1.4414c-2.5-6.375-6.2305-12.199-10.977-17.133l-11.945 11.867c0.83594 1.1367 1.4258 2.4414 1.7305 3.8242z"/>
  <path d="m80.551 19.324c-11.055-11.152-25.184-17.57-38.559-17.57-8.5-0.23047-16.746 2.9492-22.891 8.832-21.426 21.453-23.207 54.836-3.8555 74.164 8.9062 8.7969 20.965 13.66 33.484 13.496 15.32-0.16797 29.953-6.4062 40.68-17.352 14.57-14.594 10.59-42.121-8.8594-61.57zm5.1016 57.594c-5.0781 4.8438-11.898 7.4297-18.914 7.1758-11.715 0-24.746-5.9805-34.801-16.035-8.5156-8.4922-14.031-18.789-15.594-29.066-1.5391-9.9336 0.87891-18.789 6.7344-24.648l0.003906 0.003906c5.0781-4.8438 11.898-7.4336 18.91-7.1758 11.715 0 24.746 5.9805 34.801 16.035 17.254 17.227 21.23 41.312 8.8594 53.711z"/>
 </g>
</svg>
